<svg width="176" height="28" viewBox="0 0 176 28" fill="none" xmlns="http://www.w3.org/2000/svg">
<path d="M45.8119 20.628H56.8999C57.4519 20.628 57.8599 20.652 58.1239 20.7C58.4119 20.724 58.7359 20.832 59.0959 21.024C59.7439 21.36 60.0679 22.296 60.0679 23.832C60.0679 25.512 59.6239 26.496 58.7359 26.784C58.3279 26.928 57.7039 27 56.8639 27H42.6079C40.9279 27 39.9439 26.544 39.6559 25.632C39.5119 25.248 39.4399 24.636 39.4399 23.796V3.77999C39.4399 2.55599 39.6679 1.72799 40.1239 1.29599C40.5799 0.839994 41.4439 0.611994 42.7159 0.611994H56.8999C57.4519 0.611994 57.8599 0.635994 58.1239 0.683995C58.4119 0.707995 58.7359 0.815994 59.0959 1.00799C59.7439 1.34399 60.0679 2.27999 60.0679 3.81599C60.0679 5.49599 59.6239 6.47999 58.7359 6.76799C58.3279 6.91199 57.7039 6.98399 56.8639 6.98399H45.8119V10.62H52.9399C53.4919 10.62 53.8999 10.644 54.1639 10.692C54.4519 10.716 54.7759 10.824 55.1359 11.016C55.7839 11.352 56.1079 12.288 56.1079 13.824C56.1079 15.504 55.6519 16.488 54.7399 16.776C54.3319 16.92 53.7079 16.992 52.8679 16.992H45.8119V20.628Z" fill="white"/>
<path d="M81.873 5.93999C82.497 7.21199 82.809 8.628 82.809 10.188C82.809 11.748 82.497 13.164 81.873 14.436C81.249 15.684 80.445 16.68 79.461 17.424C77.469 18.96 75.405 19.728 73.269 19.728H68.769V23.796C68.769 24.348 68.745 24.768 68.697 25.056C68.673 25.32 68.565 25.632 68.373 25.992C68.037 26.64 67.101 26.964 65.565 26.964C63.885 26.964 62.901 26.52 62.613 25.632C62.469 25.224 62.397 24.6 62.397 23.76V3.77999C62.397 3.22799 62.409 2.81999 62.433 2.55599C62.481 2.26799 62.601 1.94399 62.793 1.58399C63.129 0.935994 64.065 0.611994 65.601 0.611994H73.305C75.417 0.611994 77.469 1.37999 79.461 2.91599C80.445 3.65999 81.249 4.66799 81.873 5.93999ZM73.305 13.356C74.025 13.356 74.733 13.092 75.429 12.564C76.125 12.036 76.473 11.244 76.473 10.188C76.473 9.13199 76.125 8.33999 75.429 7.81199C74.733 7.25999 74.013 6.98399 73.269 6.98399H68.769V13.356H73.305Z" fill="white"/>
<path d="M97.3828 2.48399L107.103 22.572C107.511 23.388 107.715 24 107.715 24.408C107.715 25.272 107.019 26.052 105.627 26.748C104.811 27.156 104.163 27.36 103.683 27.36C103.227 27.36 102.843 27.252 102.531 27.036C102.243 26.82 102.027 26.592 101.883 26.352C101.763 26.112 101.583 25.752 101.343 25.272L99.4708 21.384H89.4988L87.6268 25.272C87.3868 25.752 87.1948 26.1 87.0508 26.316C86.9308 26.532 86.7148 26.76 86.4028 27C86.1148 27.216 85.7308 27.324 85.2508 27.324C84.7948 27.324 84.1588 27.12 83.3428 26.712C81.9508 26.04 81.2548 25.272 81.2548 24.408C81.2548 24 81.4588 23.388 81.8668 22.572L91.5868 2.44799C91.8508 1.89599 92.2468 1.45199 92.7748 1.11599C93.3268 0.779994 93.9028 0.611994 94.5028 0.611994C95.7988 0.611994 96.7588 1.23599 97.3828 2.48399ZM94.4668 11.124L92.0908 16.056H96.8788L94.4668 11.124Z" fill="white"/>
<path d="M129.878 22.536C130.238 23.4 130.418 24.024 130.418 24.408C130.418 25.32 129.674 26.088 128.186 26.712C127.418 27.048 126.794 27.216 126.314 27.216C125.858 27.216 125.474 27.108 125.162 26.892C124.874 26.652 124.658 26.412 124.514 26.172C124.274 25.716 123.338 23.544 121.706 19.656L120.59 19.728H116.054V23.796C116.054 24.348 116.03 24.768 115.982 25.056C115.958 25.32 115.85 25.632 115.658 25.992C115.322 26.64 114.386 26.964 112.85 26.964C111.17 26.964 110.186 26.52 109.898 25.632C109.754 25.224 109.682 24.6 109.682 23.76V3.77999C109.682 3.22799 109.694 2.81999 109.718 2.55599C109.766 2.26799 109.886 1.94399 110.078 1.58399C110.414 0.935994 111.35 0.611994 112.886 0.611994H120.662C122.774 0.611994 124.826 1.37999 126.818 2.91599C127.778 3.65999 128.57 4.66799 129.194 5.93999C129.818 7.21199 130.13 8.628 130.13 10.188C130.13 12.9 129.23 15.132 127.43 16.884C127.958 18.156 128.774 20.04 129.878 22.536ZM116.054 13.356H120.662C121.358 13.356 122.054 13.092 122.75 12.564C123.446 12.036 123.794 11.244 123.794 10.188C123.794 9.13199 123.446 8.33999 122.75 7.81199C122.054 7.25999 121.334 6.98399 120.59 6.98399H116.054V13.356Z" fill="white"/>
<path d="M132.68 0.575994H152.696C153.464 0.575994 154.028 0.671994 154.388 0.863995C154.748 1.03199 154.988 1.30799 155.108 1.69199C155.228 2.07599 155.288 2.57999 155.288 3.20399C155.288 3.82799 155.228 4.33199 155.108 4.71599C154.988 5.07599 154.784 5.32799 154.496 5.47199C154.064 5.68799 153.452 5.79599 152.66 5.79599H145.784V23.904C145.784 24.456 145.76 24.864 145.712 25.128C145.688 25.392 145.58 25.704 145.388 26.064C145.22 26.4 144.908 26.64 144.452 26.784C143.996 26.928 143.396 27 142.652 27C141.908 27 141.308 26.928 140.852 26.784C140.42 26.64 140.108 26.4 139.916 26.064C139.748 25.704 139.64 25.392 139.592 25.128C139.568 24.84 139.556 24.42 139.556 23.868V5.79599H132.644C131.876 5.79599 131.312 5.71199 130.952 5.54399C130.592 5.35199 130.352 5.06399 130.232 4.68C130.112 4.29599 130.052 3.79199 130.052 3.16799C130.052 2.54399 130.112 2.05199 130.232 1.69199C130.352 1.30799 130.556 1.04399 130.844 0.899994C131.276 0.683994 131.888 0.575994 132.68 0.575994Z" fill="white"/>
<path d="M156.977 23.292C156.353 22.524 156.041 21.84 156.041 21.24C156.041 20.616 156.557 19.8 157.589 18.792C158.189 18.216 158.825 17.928 159.497 17.928C160.169 17.928 161.105 18.528 162.305 19.728C162.641 20.136 163.121 20.532 163.745 20.916C164.369 21.276 164.945 21.456 165.473 21.456C167.705 21.456 168.821 20.544 168.821 18.72C168.821 18.168 168.509 17.712 167.885 17.352C167.285 16.968 166.529 16.692 165.617 16.524C164.705 16.356 163.721 16.092 162.665 15.732C161.609 15.348 160.625 14.904 159.713 14.4C158.801 13.896 158.033 13.104 157.409 12.024C156.809 10.92 156.509 9.59999 156.509 8.06399C156.509 5.95199 157.289 4.11599 158.849 2.55599C160.433 0.971993 162.581 0.179993 165.293 0.179993C166.733 0.179993 168.041 0.371993 169.217 0.755994C170.417 1.11599 171.245 1.48799 171.701 1.87199L172.601 2.55599C173.345 3.25199 173.717 3.83999 173.717 4.31999C173.717 4.79999 173.429 5.45999 172.853 6.29999C172.037 7.49999 171.197 8.09999 170.333 8.09999C169.829 8.09999 169.205 7.85999 168.461 7.37999C168.389 7.33199 168.245 7.21199 168.029 7.01999C167.837 6.82799 167.657 6.67199 167.489 6.55199C166.985 6.23999 166.337 6.08399 165.545 6.08399C164.777 6.08399 164.129 6.27599 163.601 6.66C163.097 7.01999 162.845 7.53599 162.845 8.20799C162.845 8.85599 163.145 9.38399 163.745 9.79199C164.369 10.2 165.137 10.476 166.049 10.62C166.961 10.764 167.957 10.992 169.037 11.304C170.117 11.592 171.113 11.952 172.025 12.384C172.937 12.816 173.693 13.572 174.293 14.652C174.917 15.708 175.229 17.016 175.229 18.576C175.229 20.136 174.917 21.516 174.293 22.716C173.669 23.892 172.853 24.804 171.845 25.452C169.901 26.724 167.825 27.36 165.617 27.36C164.489 27.36 163.421 27.228 162.413 26.964C161.405 26.676 160.589 26.328 159.965 25.92C158.693 25.152 157.805 24.408 157.301 23.688L156.977 23.292Z" fill="white"/>
<path d="M19.8093 25.885C19.41 26.4351 18.59 26.4351 18.1907 25.885L1.0996 2.3374C0.619785 1.67632 1.09205 0.75 1.9089 0.75L36.0911 0.75C36.908 0.75 37.3802 1.67632 36.9004 2.3374L19.8093 25.885Z" fill="#EFA00B"/>
</svg>
